<?xml version="1.0" encoding="utf-8" standalone="no"?>
<!DOCTYPE svg PUBLIC "-//W3C//DTD SVG 1.1//EN"
  "http://www.w3.org/Graphics/SVG/1.1/DTD/svg11.dtd">
<svg xmlns:xlink="http://www.w3.org/1999/xlink" width="460.8pt" height="345.6pt" viewBox="0 0 460.8 345.6" xmlns="http://www.w3.org/2000/svg" version="1.1">
 <metadata>
  <rdf:RDF xmlns:dc="http://purl.org/dc/elements/1.1/" xmlns:cc="http://creativecommons.org/ns#" xmlns:rdf="http://www.w3.org/1999/02/22-rdf-syntax-ns#">
   <cc:Work>
    <dc:type rdf:resource="http://purl.org/dc/dcmitype/StillImage"/>
    <dc:date>2023-02-24T14:19:59.980444</dc:date>
    <dc:format>image/svg+xml</dc:format>
    <dc:creator>
     <cc:Agent>
      <dc:title>Matplotlib v3.5.2, https://matplotlib.org/</dc:title>
     </cc:Agent>
    </dc:creator>
   </cc:Work>
  </rdf:RDF>
 </metadata>
 <defs>
  <style type="text/css">*{stroke-linejoin: round; stroke-linecap: butt}</style>
 </defs>
 <g id="figure_1">
  <g id="patch_1">
   <path d="M 0 345.6 
L 460.8 345.6 
L 460.8 0 
L 0 0 
z
" style="fill: #ffffff"/>
  </g>
  <g id="axes_1">
   <g id="patch_2">
    <path d="M 57.6 307.584 
L 414.72 307.584 
L 414.72 41.472 
L 57.6 41.472 
z
" style="fill: #ffffff"/>
   </g>
   <g id="matplotlib.axis_1">
    <g id="xtick_1">
     <g id="line2d_1">
      <path d="M 73.832727 307.584 
L 73.832727 41.472 
" clip-path="url(#p6b319f97af)" style="fill: none; stroke-dasharray: 2.96,1.28; stroke-dashoffset: 0; stroke: #cccccc; stroke-width: 0.8"/>
     </g>
     <g id="line2d_2">
      <defs>
       <path id="m2aa31dd0fe" d="M 0 0 
L 0 3.5 
" style="stroke: #000000; stroke-width: 0.8"/>
      </defs>
      <g>
       <use xlink:href="#m2aa31dd0fe" x="73.832727" y="307.584" style="stroke: #000000; stroke-width: 0.8"/>
      </g>
     </g>
     <g id="text_1">
      <!-- 0 -->
      <g transform="translate(70.651477 322.182437)scale(0.1 -0.1)">
       <defs>
        <path id="DejaVuSans-30" d="M 2034 4250 
Q 1547 4250 1301 3770 
Q 1056 3291 1056 2328 
Q 1056 1369 1301 889 
Q 1547 409 2034 409 
Q 2525 409 2770 889 
Q 3016 1369 3016 2328 
Q 3016 3291 2770 3770 
Q 2525 4250 2034 4250 
z
M 2034 4750 
Q 2819 4750 3233 4129 
Q 3647 3509 3647 2328 
Q 3647 1150 3233 529 
Q 2819 -91 2034 -91 
Q 1250 -91 836 529 
Q 422 1150 422 2328 
Q 422 3509 836 4129 
Q 1250 4750 2034 4750 
z
" transform="scale(0.015625)"/>
       </defs>
       <use xlink:href="#DejaVuSans-30"/>
      </g>
     </g>
    </g>
    <g id="xtick_2">
     <g id="line2d_3">
      <path d="M 106.298182 307.584 
L 106.298182 41.472 
" clip-path="url(#p6b319f97af)" style="fill: none; stroke-dasharray: 2.96,1.28; stroke-dashoffset: 0; stroke: #cccccc; stroke-width: 0.8"/>
     </g>
     <g id="line2d_4">
      <g>
       <use xlink:href="#m2aa31dd0fe" x="106.298182" y="307.584" style="stroke: #000000; stroke-width: 0.8"/>
      </g>
     </g>
     <g id="text_2">
      <!-- 500 -->
      <g transform="translate(96.754432 322.182437)scale(0.1 -0.1)">
       <defs>
        <path id="DejaVuSans-35" d="M 691 4666 
L 3169 4666 
L 3169 4134 
L 1269 4134 
L 1269 2991 
Q 1406 3038 1543 3061 
Q 1681 3084 1819 3084 
Q 2600 3084 3056 2656 
Q 3513 2228 3513 1497 
Q 3513 744 3044 326 
Q 2575 -91 1722 -91 
Q 1428 -91 1123 -41 
Q 819 9 494 109 
L 494 744 
Q 775 591 1075 516 
Q 1375 441 1709 441 
Q 2250 441 2565 725 
Q 2881 1009 2881 1497 
Q 2881 1984 2565 2268 
Q 2250 2553 1709 2553 
Q 1456 2553 1204 2497 
Q 953 2441 691 2322 
L 691 4666 
z
" transform="scale(0.015625)"/>
       </defs>
       <use xlink:href="#DejaVuSans-35"/>
       <use xlink:href="#DejaVuSans-30" x="63.623047"/>
       <use xlink:href="#DejaVuSans-30" x="127.246094"/>
      </g>
     </g>
    </g>
    <g id="xtick_3">
     <g id="line2d_5">
      <path d="M 138.763636 307.584 
L 138.763636 41.472 
" clip-path="url(#p6b319f97af)" style="fill: none; stroke-dasharray: 2.96,1.28; stroke-dashoffset: 0; stroke: #cccccc; stroke-width: 0.8"/>
     </g>
     <g id="line2d_6">
      <g>
       <use xlink:href="#m2aa31dd0fe" x="138.763636" y="307.584" style="stroke: #000000; stroke-width: 0.8"/>
      </g>
     </g>
     <g id="text_3">
      <!-- 1000 -->
      <g transform="translate(126.038636 322.182437)scale(0.1 -0.1)">
       <defs>
        <path id="DejaVuSans-31" d="M 794 531 
L 1825 531 
L 1825 4091 
L 703 3866 
L 703 4441 
L 1819 4666 
L 2450 4666 
L 2450 531 
L 3481 531 
L 3481 0 
L 794 0 
L 794 531 
z
" transform="scale(0.015625)"/>
       </defs>
       <use xlink:href="#DejaVuSans-31"/>
       <use xlink:href="#DejaVuSans-30" x="63.623047"/>
       <use xlink:href="#DejaVuSans-30" x="127.246094"/>
       <use xlink:href="#DejaVuSans-30" x="190.869141"/>
      </g>
     </g>
    </g>
    <g id="xtick_4">
     <g id="line2d_7">
      <path d="M 171.229091 307.584 
L 171.229091 41.472 
" clip-path="url(#p6b319f97af)" style="fill: none; stroke-dasharray: 2.96,1.28; stroke-dashoffset: 0; stroke: #cccccc; stroke-width: 0.8"/>
     </g>
     <g id="line2d_8">
      <g>
       <use xlink:href="#m2aa31dd0fe" x="171.229091" y="307.584" style="stroke: #000000; stroke-width: 0.8"/>
      </g>
     </g>
     <g id="text_4">
      <!-- 1500 -->
      <g transform="translate(158.504091 322.182437)scale(0.1 -0.1)">
       <use xlink:href="#DejaVuSans-31"/>
       <use xlink:href="#DejaVuSans-35" x="63.623047"/>
       <use xlink:href="#DejaVuSans-30" x="127.246094"/>
       <use xlink:href="#DejaVuSans-30" x="190.869141"/>
      </g>
     </g>
    </g>
    <g id="xtick_5">
     <g id="line2d_9">
      <path d="M 203.694545 307.584 
L 203.694545 41.472 
" clip-path="url(#p6b319f97af)" style="fill: none; stroke-dasharray: 2.96,1.28; stroke-dashoffset: 0; stroke: #cccccc; stroke-width: 0.8"/>
     </g>
     <g id="line2d_10">
      <g>
       <use xlink:href="#m2aa31dd0fe" x="203.694545" y="307.584" style="stroke: #000000; stroke-width: 0.8"/>
      </g>
     </g>
     <g id="text_5">
      <!-- 2000 -->
      <g transform="translate(190.969545 322.182437)scale(0.1 -0.1)">
       <defs>
        <path id="DejaVuSans-32" d="M 1228 531 
L 3431 531 
L 3431 0 
L 469 0 
L 469 531 
Q 828 903 1448 1529 
Q 2069 2156 2228 2338 
Q 2531 2678 2651 2914 
Q 2772 3150 2772 3378 
Q 2772 3750 2511 3984 
Q 2250 4219 1831 4219 
Q 1534 4219 1204 4116 
Q 875 4013 500 3803 
L 500 4441 
Q 881 4594 1212 4672 
Q 1544 4750 1819 4750 
Q 2544 4750 2975 4387 
Q 3406 4025 3406 3419 
Q 3406 3131 3298 2873 
Q 3191 2616 2906 2266 
Q 2828 2175 2409 1742 
Q 1991 1309 1228 531 
z
" transform="scale(0.015625)"/>
       </defs>
       <use xlink:href="#DejaVuSans-32"/>
       <use xlink:href="#DejaVuSans-30" x="63.623047"/>
       <use xlink:href="#DejaVuSans-30" x="127.246094"/>
       <use xlink:href="#DejaVuSans-30" x="190.869141"/>
      </g>
     </g>
    </g>
    <g id="xtick_6">
     <g id="line2d_11">
      <path d="M 236.16 307.584 
L 236.16 41.472 
" clip-path="url(#p6b319f97af)" style="fill: none; stroke-dasharray: 2.96,1.28; stroke-dashoffset: 0; stroke: #cccccc; stroke-width: 0.8"/>
     </g>
     <g id="line2d_12">
      <g>
       <use xlink:href="#m2aa31dd0fe" x="236.16" y="307.584" style="stroke: #000000; stroke-width: 0.8"/>
      </g>
     </g>
     <g id="text_6">
      <!-- 2500 -->
      <g transform="translate(223.435 322.182437)scale(0.1 -0.1)">
       <use xlink:href="#DejaVuSans-32"/>
       <use xlink:href="#DejaVuSans-35" x="63.623047"/>
       <use xlink:href="#DejaVuSans-30" x="127.246094"/>
       <use xlink:href="#DejaVuSans-30" x="190.869141"/>
      </g>
     </g>
    </g>
    <g id="xtick_7">
     <g id="line2d_13">
      <path d="M 268.625455 307.584 
L 268.625455 41.472 
" clip-path="url(#p6b319f97af)" style="fill: none; stroke-dasharray: 2.96,1.28; stroke-dashoffset: 0; stroke: #cccccc; stroke-width: 0.8"/>
     </g>
     <g id="line2d_14">
      <g>
       <use xlink:href="#m2aa31dd0fe" x="268.625455" y="307.584" style="stroke: #000000; stroke-width: 0.8"/>
      </g>
     </g>
     <g id="text_7">
      <!-- 3000 -->
      <g transform="translate(255.900455 322.182437)scale(0.1 -0.1)">
       <defs>
        <path id="DejaVuSans-33" d="M 2597 2516 
Q 3050 2419 3304 2112 
Q 3559 1806 3559 1356 
Q 3559 666 3084 287 
Q 2609 -91 1734 -91 
Q 1441 -91 1130 -33 
Q 819 25 488 141 
L 488 750 
Q 750 597 1062 519 
Q 1375 441 1716 441 
Q 2309 441 2620 675 
Q 2931 909 2931 1356 
Q 2931 1769 2642 2001 
Q 2353 2234 1838 2234 
L 1294 2234 
L 1294 2753 
L 1863 2753 
Q 2328 2753 2575 2939 
Q 2822 3125 2822 3475 
Q 2822 3834 2567 4026 
Q 2313 4219 1838 4219 
Q 1578 4219 1281 4162 
Q 984 4106 628 3988 
L 628 4550 
Q 988 4650 1302 4700 
Q 1616 4750 1894 4750 
Q 2613 4750 3031 4423 
Q 3450 4097 3450 3541 
Q 3450 3153 3228 2886 
Q 3006 2619 2597 2516 
z
" transform="scale(0.015625)"/>
       </defs>
       <use xlink:href="#DejaVuSans-33"/>
       <use xlink:href="#DejaVuSans-30" x="63.623047"/>
       <use xlink:href="#DejaVuSans-30" x="127.246094"/>
       <use xlink:href="#DejaVuSans-30" x="190.869141"/>
      </g>
     </g>
    </g>
    <g id="xtick_8">
     <g id="line2d_15">
      <path d="M 301.090909 307.584 
L 301.090909 41.472 
" clip-path="url(#p6b319f97af)" style="fill: none; stroke-dasharray: 2.96,1.28; stroke-dashoffset: 0; stroke: #cccccc; stroke-width: 0.8"/>
     </g>
     <g id="line2d_16">
      <g>
       <use xlink:href="#m2aa31dd0fe" x="301.090909" y="307.584" style="stroke: #000000; stroke-width: 0.8"/>
      </g>
     </g>
     <g id="text_8">
      <!-- 3500 -->
      <g transform="translate(288.365909 322.182437)scale(0.1 -0.1)">
       <use xlink:href="#DejaVuSans-33"/>
       <use xlink:href="#DejaVuSans-35" x="63.623047"/>
       <use xlink:href="#DejaVuSans-30" x="127.246094"/>
       <use xlink:href="#DejaVuSans-30" x="190.869141"/>
      </g>
     </g>
    </g>
    <g id="xtick_9">
     <g id="line2d_17">
      <path d="M 333.556364 307.584 
L 333.556364 41.472 
" clip-path="url(#p6b319f97af)" style="fill: none; stroke-dasharray: 2.96,1.28; stroke-dashoffset: 0; stroke: #cccccc; stroke-width: 0.8"/>
     </g>
     <g id="line2d_18">
      <g>
       <use xlink:href="#m2aa31dd0fe" x="333.556364" y="307.584" style="stroke: #000000; stroke-width: 0.8"/>
      </g>
     </g>
     <g id="text_9">
      <!-- 4000 -->
      <g transform="translate(320.831364 322.182437)scale(0.1 -0.1)">
       <defs>
        <path id="DejaVuSans-34" d="M 2419 4116 
L 825 1625 
L 2419 1625 
L 2419 4116 
z
M 2253 4666 
L 3047 4666 
L 3047 1625 
L 3713 1625 
L 3713 1100 
L 3047 1100 
L 3047 0 
L 2419 0 
L 2419 1100 
L 313 1100 
L 313 1709 
L 2253 4666 
z
" transform="scale(0.015625)"/>
       </defs>
       <use xlink:href="#DejaVuSans-34"/>
       <use xlink:href="#DejaVuSans-30" x="63.623047"/>
       <use xlink:href="#DejaVuSans-30" x="127.246094"/>
       <use xlink:href="#DejaVuSans-30" x="190.869141"/>
      </g>
     </g>
    </g>
    <g id="xtick_10">
     <g id="line2d_19">
      <path d="M 366.021818 307.584 
L 366.021818 41.472 
" clip-path="url(#p6b319f97af)" style="fill: none; stroke-dasharray: 2.96,1.28; stroke-dashoffset: 0; stroke: #cccccc; stroke-width: 0.8"/>
     </g>
     <g id="line2d_20">
      <g>
       <use xlink:href="#m2aa31dd0fe" x="366.021818" y="307.584" style="stroke: #000000; stroke-width: 0.8"/>
      </g>
     </g>
     <g id="text_10">
      <!-- 4500 -->
      <g transform="translate(353.296818 322.182437)scale(0.1 -0.1)">
       <use xlink:href="#DejaVuSans-34"/>
       <use xlink:href="#DejaVuSans-35" x="63.623047"/>
       <use xlink:href="#DejaVuSans-30" x="127.246094"/>
       <use xlink:href="#DejaVuSans-30" x="190.869141"/>
      </g>
     </g>
    </g>
    <g id="xtick_11">
     <g id="line2d_21">
      <path d="M 398.487273 307.584 
L 398.487273 41.472 
" clip-path="url(#p6b319f97af)" style="fill: none; stroke-dasharray: 2.96,1.28; stroke-dashoffset: 0; stroke: #cccccc; stroke-width: 0.8"/>
     </g>
     <g id="line2d_22">
      <g>
       <use xlink:href="#m2aa31dd0fe" x="398.487273" y="307.584" style="stroke: #000000; stroke-width: 0.8"/>
      </g>
     </g>
     <g id="text_11">
      <!-- 5000 -->
      <g transform="translate(385.762273 322.182437)scale(0.1 -0.1)">
       <use xlink:href="#DejaVuSans-35"/>
       <use xlink:href="#DejaVuSans-30" x="63.623047"/>
       <use xlink:href="#DejaVuSans-30" x="127.246094"/>
       <use xlink:href="#DejaVuSans-30" x="190.869141"/>
      </g>
     </g>
    </g>
    <g id="text_12">
     <!-- Tiempo (ms) -->
     <g transform="translate(198.440625 337.38025)scale(0.12 -0.12)">
      <defs>
       <path id="DejaVuSans-54" d="M -19 4666 
L 3928 4666 
L 3928 4134 
L 2272 4134 
L 2272 0 
L 1638 0 
L 1638 4134 
L -19 4134 
L -19 4666 
z
" transform="scale(0.015625)"/>
       <path id="DejaVuSans-69" d="M 603 3500 
L 1178 3500 
L 1178 0 
L 603 0 
L 603 3500 
z
M 603 4863 
L 1178 4863 
L 1178 4134 
L 603 4134 
L 603 4863 
z
" transform="scale(0.015625)"/>
       <path id="DejaVuSans-65" d="M 3597 1894 
L 3597 1613 
L 953 1613 
Q 991 1019 1311 708 
Q 1631 397 2203 397 
Q 2534 397 2845 478 
Q 3156 559 3463 722 
L 3463 178 
Q 3153 47 2828 -22 
Q 2503 -91 2169 -91 
Q 1331 -91 842 396 
Q 353 884 353 1716 
Q 353 2575 817 3079 
Q 1281 3584 2069 3584 
Q 2775 3584 3186 3129 
Q 3597 2675 3597 1894 
z
M 3022 2063 
Q 3016 2534 2758 2815 
Q 2500 3097 2075 3097 
Q 1594 3097 1305 2825 
Q 1016 2553 972 2059 
L 3022 2063 
z
" transform="scale(0.015625)"/>
       <path id="DejaVuSans-6d" d="M 3328 2828 
Q 3544 3216 3844 3400 
Q 4144 3584 4550 3584 
Q 5097 3584 5394 3201 
Q 5691 2819 5691 2113 
L 5691 0 
L 5113 0 
L 5113 2094 
Q 5113 2597 4934 2840 
Q 4756 3084 4391 3084 
Q 3944 3084 3684 2787 
Q 3425 2491 3425 1978 
L 3425 0 
L 2847 0 
L 2847 2094 
Q 2847 2600 2669 2842 
Q 2491 3084 2119 3084 
Q 1678 3084 1418 2786 
Q 1159 2488 1159 1978 
L 1159 0 
L 581 0 
L 581 3500 
L 1159 3500 
L 1159 2956 
Q 1356 3278 1631 3431 
Q 1906 3584 2284 3584 
Q 2666 3584 2933 3390 
Q 3200 3197 3328 2828 
z
" transform="scale(0.015625)"/>
       <path id="DejaVuSans-70" d="M 1159 525 
L 1159 -1331 
L 581 -1331 
L 581 3500 
L 1159 3500 
L 1159 2969 
Q 1341 3281 1617 3432 
Q 1894 3584 2278 3584 
Q 2916 3584 3314 3078 
Q 3713 2572 3713 1747 
Q 3713 922 3314 415 
Q 2916 -91 2278 -91 
Q 1894 -91 1617 61 
Q 1341 213 1159 525 
z
M 3116 1747 
Q 3116 2381 2855 2742 
Q 2594 3103 2138 3103 
Q 1681 3103 1420 2742 
Q 1159 2381 1159 1747 
Q 1159 1113 1420 752 
Q 1681 391 2138 391 
Q 2594 391 2855 752 
Q 3116 1113 3116 1747 
z
" transform="scale(0.015625)"/>
       <path id="DejaVuSans-6f" d="M 1959 3097 
Q 1497 3097 1228 2736 
Q 959 2375 959 1747 
Q 959 1119 1226 758 
Q 1494 397 1959 397 
Q 2419 397 2687 759 
Q 2956 1122 2956 1747 
Q 2956 2369 2687 2733 
Q 2419 3097 1959 3097 
z
M 1959 3584 
Q 2709 3584 3137 3096 
Q 3566 2609 3566 1747 
Q 3566 888 3137 398 
Q 2709 -91 1959 -91 
Q 1206 -91 779 398 
Q 353 888 353 1747 
Q 353 2609 779 3096 
Q 1206 3584 1959 3584 
z
" transform="scale(0.015625)"/>
       <path id="DejaVuSans-20" transform="scale(0.015625)"/>
       <path id="DejaVuSans-28" d="M 1984 4856 
Q 1566 4138 1362 3434 
Q 1159 2731 1159 2009 
Q 1159 1288 1364 580 
Q 1569 -128 1984 -844 
L 1484 -844 
Q 1016 -109 783 600 
Q 550 1309 550 2009 
Q 550 2706 781 3412 
Q 1013 4119 1484 4856 
L 1984 4856 
z
" transform="scale(0.015625)"/>
       <path id="DejaVuSans-73" d="M 2834 3397 
L 2834 2853 
Q 2591 2978 2328 3040 
Q 2066 3103 1784 3103 
Q 1356 3103 1142 2972 
Q 928 2841 928 2578 
Q 928 2378 1081 2264 
Q 1234 2150 1697 2047 
L 1894 2003 
Q 2506 1872 2764 1633 
Q 3022 1394 3022 966 
Q 3022 478 2636 193 
Q 2250 -91 1575 -91 
Q 1294 -91 989 -36 
Q 684 19 347 128 
L 347 722 
Q 666 556 975 473 
Q 1284 391 1588 391 
Q 1994 391 2212 530 
Q 2431 669 2431 922 
Q 2431 1156 2273 1281 
Q 2116 1406 1581 1522 
L 1381 1569 
Q 847 1681 609 1914 
Q 372 2147 372 2553 
Q 372 3047 722 3315 
Q 1072 3584 1716 3584 
Q 2034 3584 2315 3537 
Q 2597 3491 2834 3397 
z
" transform="scale(0.015625)"/>
       <path id="DejaVuSans-29" d="M 513 4856 
L 1013 4856 
Q 1481 4119 1714 3412 
Q 1947 2706 1947 2009 
Q 1947 1309 1714 600 
Q 1481 -109 1013 -844 
L 513 -844 
Q 928 -128 1133 580 
Q 1338 1288 1338 2009 
Q 1338 2731 1133 3434 
Q 928 4138 513 4856 
z
" transform="scale(0.015625)"/>
      </defs>
      <use xlink:href="#DejaVuSans-54"/>
      <use xlink:href="#DejaVuSans-69" x="57.958984"/>
      <use xlink:href="#DejaVuSans-65" x="85.742188"/>
      <use xlink:href="#DejaVuSans-6d" x="147.265625"/>
      <use xlink:href="#DejaVuSans-70" x="244.677734"/>
      <use xlink:href="#DejaVuSans-6f" x="308.154297"/>
      <use xlink:href="#DejaVuSans-20" x="369.335938"/>
      <use xlink:href="#DejaVuSans-28" x="401.123047"/>
      <use xlink:href="#DejaVuSans-6d" x="440.136719"/>
      <use xlink:href="#DejaVuSans-73" x="537.548828"/>
      <use xlink:href="#DejaVuSans-29" x="589.648438"/>
     </g>
    </g>
   </g>
   <g id="matplotlib.axis_2">
    <g id="ytick_1">
     <g id="line2d_23">
      <path d="M 57.6 295.488 
L 414.72 295.488 
" clip-path="url(#p6b319f97af)" style="fill: none; stroke-dasharray: 2.96,1.28; stroke-dashoffset: 0; stroke: #cccccc; stroke-width: 0.8"/>
     </g>
     <g id="line2d_24">
      <defs>
       <path id="m0424eb7c1c" d="M 0 0 
L -3.5 0 
" style="stroke: #000000; stroke-width: 0.8"/>
      </defs>
      <g>
       <use xlink:href="#m0424eb7c1c" x="57.6" y="295.488" style="stroke: #000000; stroke-width: 0.8"/>
      </g>
     </g>
     <g id="text_13">
      <!-- 0 -->
      <g transform="translate(44.2375 299.287219)scale(0.1 -0.1)">
       <use xlink:href="#DejaVuSans-30"/>
      </g>
     </g>
    </g>
    <g id="ytick_2">
     <g id="line2d_25">
      <path d="M 57.6 256.468645 
L 414.72 256.468645 
" clip-path="url(#p6b319f97af)" style="fill: none; stroke-dasharray: 2.96,1.28; stroke-dashoffset: 0; stroke: #cccccc; stroke-width: 0.8"/>
     </g>
     <g id="line2d_26">
      <g>
       <use xlink:href="#m0424eb7c1c" x="57.6" y="256.468645" style="stroke: #000000; stroke-width: 0.8"/>
      </g>
     </g>
     <g id="text_14">
      <!-- 5 -->
      <g transform="translate(44.2375 260.267864)scale(0.1 -0.1)">
       <use xlink:href="#DejaVuSans-35"/>
      </g>
     </g>
    </g>
    <g id="ytick_3">
     <g id="line2d_27">
      <path d="M 57.6 217.44929 
L 414.72 217.44929 
" clip-path="url(#p6b319f97af)" style="fill: none; stroke-dasharray: 2.96,1.28; stroke-dashoffset: 0; stroke: #cccccc; stroke-width: 0.8"/>
     </g>
     <g id="line2d_28">
      <g>
       <use xlink:href="#m0424eb7c1c" x="57.6" y="217.44929" style="stroke: #000000; stroke-width: 0.8"/>
      </g>
     </g>
     <g id="text_15">
      <!-- 10 -->
      <g transform="translate(37.875 221.248509)scale(0.1 -0.1)">
       <use xlink:href="#DejaVuSans-31"/>
       <use xlink:href="#DejaVuSans-30" x="63.623047"/>
      </g>
     </g>
    </g>
    <g id="ytick_4">
     <g id="line2d_29">
      <path d="M 57.6 178.429935 
L 414.72 178.429935 
" clip-path="url(#p6b319f97af)" style="fill: none; stroke-dasharray: 2.96,1.28; stroke-dashoffset: 0; stroke: #cccccc; stroke-width: 0.8"/>
     </g>
     <g id="line2d_30">
      <g>
       <use xlink:href="#m0424eb7c1c" x="57.6" y="178.429935" style="stroke: #000000; stroke-width: 0.8"/>
      </g>
     </g>
     <g id="text_16">
      <!-- 15 -->
      <g transform="translate(37.875 182.229154)scale(0.1 -0.1)">
       <use xlink:href="#DejaVuSans-31"/>
       <use xlink:href="#DejaVuSans-35" x="63.623047"/>
      </g>
     </g>
    </g>
    <g id="ytick_5">
     <g id="line2d_31">
      <path d="M 57.6 139.410581 
L 414.72 139.410581 
" clip-path="url(#p6b319f97af)" style="fill: none; stroke-dasharray: 2.96,1.28; stroke-dashoffset: 0; stroke: #cccccc; stroke-width: 0.8"/>
     </g>
     <g id="line2d_32">
      <g>
       <use xlink:href="#m0424eb7c1c" x="57.6" y="139.410581" style="stroke: #000000; stroke-width: 0.8"/>
      </g>
     </g>
     <g id="text_17">
      <!-- 20 -->
      <g transform="translate(37.875 143.209799)scale(0.1 -0.1)">
       <use xlink:href="#DejaVuSans-32"/>
       <use xlink:href="#DejaVuSans-30" x="63.623047"/>
      </g>
     </g>
    </g>
    <g id="ytick_6">
     <g id="line2d_33">
      <path d="M 57.6 100.391226 
L 414.72 100.391226 
" clip-path="url(#p6b319f97af)" style="fill: none; stroke-dasharray: 2.96,1.28; stroke-dashoffset: 0; stroke: #cccccc; stroke-width: 0.8"/>
     </g>
     <g id="line2d_34">
      <g>
       <use xlink:href="#m0424eb7c1c" x="57.6" y="100.391226" style="stroke: #000000; stroke-width: 0.8"/>
      </g>
     </g>
     <g id="text_18">
      <!-- 25 -->
      <g transform="translate(37.875 104.190445)scale(0.1 -0.1)">
       <use xlink:href="#DejaVuSans-32"/>
       <use xlink:href="#DejaVuSans-35" x="63.623047"/>
      </g>
     </g>
    </g>
    <g id="ytick_7">
     <g id="line2d_35">
      <path d="M 57.6 61.371871 
L 414.72 61.371871 
" clip-path="url(#p6b319f97af)" style="fill: none; stroke-dasharray: 2.96,1.28; stroke-dashoffset: 0; stroke: #cccccc; stroke-width: 0.8"/>
     </g>
     <g id="line2d_36">
      <g>
       <use xlink:href="#m0424eb7c1c" x="57.6" y="61.371871" style="stroke: #000000; stroke-width: 0.8"/>
      </g>
     </g>
     <g id="text_19">
      <!-- 30 -->
      <g transform="translate(37.875 65.17109)scale(0.1 -0.1)">
       <use xlink:href="#DejaVuSans-33"/>
       <use xlink:href="#DejaVuSans-30" x="63.623047"/>
      </g>
     </g>
    </g>
    <g id="text_20">
     <!-- PRBs -->
     <g transform="translate(31.379375 189.557063)rotate(-90)scale(0.12 -0.12)">
      <defs>
       <path id="DejaVuSans-50" d="M 1259 4147 
L 1259 2394 
L 2053 2394 
Q 2494 2394 2734 2622 
Q 2975 2850 2975 3272 
Q 2975 3691 2734 3919 
Q 2494 4147 2053 4147 
L 1259 4147 
z
M 628 4666 
L 2053 4666 
Q 2838 4666 3239 4311 
Q 3641 3956 3641 3272 
Q 3641 2581 3239 2228 
Q 2838 1875 2053 1875 
L 1259 1875 
L 1259 0 
L 628 0 
L 628 4666 
z
" transform="scale(0.015625)"/>
       <path id="DejaVuSans-52" d="M 2841 2188 
Q 3044 2119 3236 1894 
Q 3428 1669 3622 1275 
L 4263 0 
L 3584 0 
L 2988 1197 
Q 2756 1666 2539 1819 
Q 2322 1972 1947 1972 
L 1259 1972 
L 1259 0 
L 628 0 
L 628 4666 
L 2053 4666 
Q 2853 4666 3247 4331 
Q 3641 3997 3641 3322 
Q 3641 2881 3436 2590 
Q 3231 2300 2841 2188 
z
M 1259 4147 
L 1259 2491 
L 2053 2491 
Q 2509 2491 2742 2702 
Q 2975 2913 2975 3322 
Q 2975 3731 2742 3939 
Q 2509 4147 2053 4147 
L 1259 4147 
z
" transform="scale(0.015625)"/>
       <path id="DejaVuSans-42" d="M 1259 2228 
L 1259 519 
L 2272 519 
Q 2781 519 3026 730 
Q 3272 941 3272 1375 
Q 3272 1813 3026 2020 
Q 2781 2228 2272 2228 
L 1259 2228 
z
M 1259 4147 
L 1259 2741 
L 2194 2741 
Q 2656 2741 2882 2914 
Q 3109 3088 3109 3444 
Q 3109 3797 2882 3972 
Q 2656 4147 2194 4147 
L 1259 4147 
z
M 628 4666 
L 2241 4666 
Q 2963 4666 3353 4366 
Q 3744 4066 3744 3513 
Q 3744 3084 3544 2831 
Q 3344 2578 2956 2516 
Q 3422 2416 3680 2098 
Q 3938 1781 3938 1306 
Q 3938 681 3513 340 
Q 3088 0 2303 0 
L 628 0 
L 628 4666 
z
" transform="scale(0.015625)"/>
      </defs>
      <use xlink:href="#DejaVuSans-50"/>
      <use xlink:href="#DejaVuSans-52" x="60.302734"/>
      <use xlink:href="#DejaVuSans-42" x="129.785156"/>
      <use xlink:href="#DejaVuSans-73" x="198.388672"/>
     </g>
    </g>
   </g>
   <g id="line2d_37">
    <path d="M 73.832727 295.488 
L 77.079273 295.488 
L 80.325818 53.568 
L 83.572364 53.568 
L 86.818909 53.568 
L 90.065455 53.568 
L 93.312 53.568 
L 96.558545 53.568 
L 99.805091 53.568 
L 103.051636 53.568 
L 106.298182 53.568 
L 109.544727 53.568 
L 112.791273 53.568 
L 116.037818 53.568 
L 119.284364 53.568 
L 122.530909 53.568 
L 125.777455 53.568 
L 129.024 53.568 
L 132.270545 53.568 
L 135.517091 53.568 
L 138.763636 53.568 
L 142.010182 53.568 
L 145.256727 53.568 
L 148.503273 53.568 
L 151.749818 53.568 
L 154.996364 53.568 
L 158.242909 53.568 
L 161.489455 53.568 
L 164.736 53.568 
L 167.982545 53.568 
L 171.229091 53.568 
L 174.475636 53.568 
L 177.722182 295.488 
L 180.968727 295.488 
L 184.215273 53.568 
L 187.461818 53.568 
L 190.708364 295.488 
L 193.954909 295.488 
L 197.201455 139.410581 
L 200.448 139.410581 
L 203.694545 295.488 
L 206.941091 295.488 
L 210.187636 53.568 
L 213.434182 53.568 
L 216.680727 295.488 
L 219.927273 295.488 
L 223.173818 53.568 
L 226.420364 53.568 
L 229.666909 295.488 
L 232.913455 295.488 
L 236.16 139.410581 
L 239.406545 139.410581 
L 242.653091 295.488 
L 245.899636 295.488 
L 249.146182 53.568 
L 252.392727 53.568 
L 255.639273 295.488 
L 258.885818 295.488 
L 262.132364 53.568 
L 265.378909 53.568 
L 268.625455 295.488 
L 271.872 295.488 
L 275.118545 139.410581 
L 278.365091 139.410581 
L 281.611636 295.488 
L 284.858182 295.488 
L 288.104727 53.568 
L 291.351273 53.568 
L 294.597818 295.488 
L 297.844364 295.488 
L 301.090909 53.568 
L 304.337455 53.568 
L 307.584 295.488 
L 310.830545 295.488 
L 314.077091 139.410581 
L 317.323636 139.410581 
L 320.570182 295.488 
L 323.816727 295.488 
L 327.063273 295.488 
L 330.309818 295.488 
L 333.556364 295.488 
L 336.802909 295.488 
L 340.049455 295.488 
L 343.296 295.488 
L 346.542545 295.488 
L 349.789091 295.488 
L 353.035636 295.488 
L 356.282182 295.488 
L 359.528727 295.488 
L 362.775273 295.488 
L 366.021818 295.488 
L 369.268364 295.488 
L 372.514909 295.488 
L 375.761455 295.488 
L 379.008 295.488 
L 382.254545 295.488 
L 385.501091 295.488 
L 388.747636 295.488 
L 391.994182 295.488 
L 395.240727 295.488 
L 398.487273 295.488 
" clip-path="url(#p6b319f97af)" style="fill: none; stroke: #1f77b4; stroke-width: 0.5; stroke-linecap: square"/>
   </g>
   <g id="line2d_38">
    <path d="M 73.832727 295.488 
L 77.079273 295.488 
L 80.325818 139.410581 
L 83.572364 139.410581 
L 86.818909 139.410581 
L 90.065455 139.410581 
L 93.312 139.410581 
L 96.558545 139.410581 
L 99.805091 139.410581 
L 103.051636 139.410581 
L 106.298182 139.410581 
L 109.544727 139.410581 
L 112.791273 139.410581 
L 116.037818 139.410581 
L 119.284364 139.410581 
L 122.530909 139.410581 
L 125.777455 139.410581 
L 129.024 139.410581 
L 132.270545 139.410581 
L 135.517091 139.410581 
L 138.763636 139.410581 
L 142.010182 139.410581 
L 145.256727 139.410581 
L 148.503273 139.410581 
L 151.749818 139.410581 
L 154.996364 139.410581 
L 158.242909 139.410581 
L 161.489455 139.410581 
L 164.736 139.410581 
L 167.982545 139.410581 
L 171.229091 139.410581 
L 174.475636 139.410581 
L 177.722182 295.488 
L 180.968727 295.488 
L 184.215273 217.44929 
L 187.461818 217.44929 
L 190.708364 53.568 
L 193.954909 53.568 
L 197.201455 295.488 
L 200.448 295.488 
L 203.694545 53.568 
L 206.941091 53.568 
L 210.187636 139.410581 
L 213.434182 139.410581 
L 216.680727 295.488 
L 219.927273 295.488 
L 223.173818 217.44929 
L 226.420364 217.44929 
L 229.666909 53.568 
L 232.913455 53.568 
L 236.16 295.488 
L 239.406545 295.488 
L 242.653091 53.568 
L 245.899636 53.568 
L 249.146182 139.410581 
L 252.392727 139.410581 
L 255.639273 295.488 
L 258.885818 295.488 
L 262.132364 217.44929 
L 265.378909 217.44929 
L 268.625455 53.568 
L 271.872 53.568 
L 275.118545 295.488 
L 278.365091 295.488 
L 281.611636 53.568 
L 284.858182 53.568 
L 288.104727 139.410581 
L 291.351273 139.410581 
L 294.597818 295.488 
L 297.844364 295.488 
L 301.090909 217.44929 
L 304.337455 217.44929 
L 307.584 53.568 
L 310.830545 53.568 
L 314.077091 295.488 
L 317.323636 295.488 
L 320.570182 53.568 
L 323.816727 53.568 
L 327.063273 53.568 
L 330.309818 53.568 
L 333.556364 53.568 
L 336.802909 53.568 
L 340.049455 53.568 
L 343.296 53.568 
L 346.542545 53.568 
L 349.789091 53.568 
L 353.035636 53.568 
L 356.282182 53.568 
L 359.528727 53.568 
L 362.775273 53.568 
L 366.021818 53.568 
L 369.268364 53.568 
L 372.514909 53.568 
L 375.761455 53.568 
L 379.008 53.568 
L 382.254545 53.568 
L 385.501091 53.568 
L 388.747636 53.568 
L 391.994182 53.568 
L 395.240727 53.568 
L 398.487273 295.488 
" clip-path="url(#p6b319f97af)" style="fill: none; stroke: #ff7f0e; stroke-width: 0.5; stroke-linecap: square"/>
   </g>
   <g id="line2d_39">
    <path d="M 73.832727 295.488 
L 77.079273 295.488 
L 80.325818 295.488 
L 83.572364 295.488 
L 86.818909 295.488 
L 90.065455 295.488 
L 93.312 295.488 
L 96.558545 295.488 
L 99.805091 295.488 
L 103.051636 295.488 
L 106.298182 295.488 
L 109.544727 295.488 
L 112.791273 295.488 
L 116.037818 295.488 
L 119.284364 295.488 
L 122.530909 295.488 
L 125.777455 295.488 
L 129.024 295.488 
L 132.270545 295.488 
L 135.517091 295.488 
L 138.763636 295.488 
L 142.010182 295.488 
L 145.256727 295.488 
L 148.503273 295.488 
L 151.749818 295.488 
L 154.996364 295.488 
L 158.242909 295.488 
L 161.489455 295.488 
L 164.736 295.488 
L 167.982545 295.488 
L 171.229091 295.488 
L 174.475636 295.488 
L 177.722182 295.488 
L 180.968727 295.488 
L 184.215273 217.44929 
L 187.461818 217.44929 
L 190.708364 139.410581 
L 193.954909 139.410581 
L 197.201455 53.568 
L 200.448 53.568 
L 203.694545 139.410581 
L 206.941091 139.410581 
L 210.187636 295.488 
L 213.434182 295.488 
L 216.680727 295.488 
L 219.927273 295.488 
L 223.173818 217.44929 
L 226.420364 217.44929 
L 229.666909 139.410581 
L 232.913455 139.410581 
L 236.16 53.568 
L 239.406545 53.568 
L 242.653091 139.410581 
L 245.899636 139.410581 
L 249.146182 295.488 
L 252.392727 295.488 
L 255.639273 295.488 
L 258.885818 295.488 
L 262.132364 217.44929 
L 265.378909 217.44929 
L 268.625455 139.410581 
L 271.872 139.410581 
L 275.118545 53.568 
L 278.365091 53.568 
L 281.611636 139.410581 
L 284.858182 139.410581 
L 288.104727 295.488 
L 291.351273 295.488 
L 294.597818 295.488 
L 297.844364 295.488 
L 301.090909 217.44929 
L 304.337455 217.44929 
L 307.584 139.410581 
L 310.830545 139.410581 
L 314.077091 53.568 
L 317.323636 53.568 
L 320.570182 139.410581 
L 323.816727 139.410581 
L 327.063273 139.410581 
L 330.309818 139.410581 
L 333.556364 139.410581 
L 336.802909 139.410581 
L 340.049455 139.410581 
L 343.296 139.410581 
L 346.542545 139.410581 
L 349.789091 139.410581 
L 353.035636 139.410581 
L 356.282182 139.410581 
L 359.528727 139.410581 
L 362.775273 139.410581 
L 366.021818 139.410581 
L 369.268364 139.410581 
L 372.514909 139.410581 
L 375.761455 139.410581 
L 379.008 139.410581 
L 382.254545 139.410581 
L 385.501091 139.410581 
L 388.747636 139.410581 
L 391.994182 139.410581 
L 395.240727 139.410581 
L 398.487273 295.488 
" clip-path="url(#p6b319f97af)" style="fill: none; stroke: #2ca02c; stroke-width: 0.5; stroke-linecap: square"/>
   </g>
   <g id="patch_3">
    <path d="M 57.6 307.584 
L 57.6 41.472 
" style="fill: none; stroke: #000000; stroke-linejoin: miter; stroke-linecap: square"/>
   </g>
   <g id="patch_4">
    <path d="M 57.6 307.584 
L 414.72 307.584 
" style="fill: none; stroke: #000000; stroke-linejoin: miter; stroke-linecap: square"/>
   </g>
   <g id="legend_1">
    <g id="patch_5">
     <path d="M 321.751875 202.748625 
L 406.32 202.748625 
Q 408.72 202.748625 408.72 200.348625 
L 408.72 148.707375 
Q 408.72 146.307375 406.32 146.307375 
L 321.751875 146.307375 
Q 319.351875 146.307375 319.351875 148.707375 
L 319.351875 200.348625 
Q 319.351875 202.748625 321.751875 202.748625 
z
" style="fill: #ffffff; opacity: 0.8; stroke: #cccccc; stroke-linejoin: miter"/>
    </g>
    <g id="line2d_40">
     <path d="M 324.151875 156.0255 
L 336.151875 156.0255 
L 348.151875 156.0255 
" style="fill: none; stroke: #1f77b4; stroke-width: 0.5; stroke-linecap: square"/>
    </g>
    <g id="text_21">
     <!-- eMBB-0 -->
     <g transform="translate(357.751875 160.2255)scale(0.12 -0.12)">
      <defs>
       <path id="DejaVuSans-4d" d="M 628 4666 
L 1569 4666 
L 2759 1491 
L 3956 4666 
L 4897 4666 
L 4897 0 
L 4281 0 
L 4281 4097 
L 3078 897 
L 2444 897 
L 1241 4097 
L 1241 0 
L 628 0 
L 628 4666 
z
" transform="scale(0.015625)"/>
       <path id="DejaVuSans-2d" d="M 313 2009 
L 1997 2009 
L 1997 1497 
L 313 1497 
L 313 2009 
z
" transform="scale(0.015625)"/>
      </defs>
      <use xlink:href="#DejaVuSans-65"/>
      <use xlink:href="#DejaVuSans-4d" x="61.523438"/>
      <use xlink:href="#DejaVuSans-42" x="147.802734"/>
      <use xlink:href="#DejaVuSans-42" x="216.40625"/>
      <use xlink:href="#DejaVuSans-2d" x="285.009766"/>
      <use xlink:href="#DejaVuSans-30" x="321.09375"/>
     </g>
    </g>
    <g id="line2d_41">
     <path d="M 324.151875 173.63925 
L 336.151875 173.63925 
L 348.151875 173.63925 
" style="fill: none; stroke: #ff7f0e; stroke-width: 0.5; stroke-linecap: square"/>
    </g>
    <g id="text_22">
     <!-- eMBB-1 -->
     <g transform="translate(357.751875 177.83925)scale(0.12 -0.12)">
      <use xlink:href="#DejaVuSans-65"/>
      <use xlink:href="#DejaVuSans-4d" x="61.523438"/>
      <use xlink:href="#DejaVuSans-42" x="147.802734"/>
      <use xlink:href="#DejaVuSans-42" x="216.40625"/>
      <use xlink:href="#DejaVuSans-2d" x="285.009766"/>
      <use xlink:href="#DejaVuSans-31" x="321.09375"/>
     </g>
    </g>
    <g id="line2d_42">
     <path d="M 324.151875 191.253 
L 336.151875 191.253 
L 348.151875 191.253 
" style="fill: none; stroke: #2ca02c; stroke-width: 0.5; stroke-linecap: square"/>
    </g>
    <g id="text_23">
     <!-- eMBB-2 -->
     <g transform="translate(357.751875 195.453)scale(0.12 -0.12)">
      <use xlink:href="#DejaVuSans-65"/>
      <use xlink:href="#DejaVuSans-4d" x="61.523438"/>
      <use xlink:href="#DejaVuSans-42" x="147.802734"/>
      <use xlink:href="#DejaVuSans-42" x="216.40625"/>
      <use xlink:href="#DejaVuSans-2d" x="285.009766"/>
      <use xlink:href="#DejaVuSans-32" x="321.09375"/>
     </g>
    </g>
   </g>
  </g>
 </g>
 <defs>
  <clipPath id="p6b319f97af">
   <rect x="57.6" y="41.472" width="357.12" height="266.112"/>
  </clipPath>
 </defs>
</svg>
