<?xml version="1.0" encoding="utf-8" standalone="no"?>
<!DOCTYPE svg PUBLIC "-//W3C//DTD SVG 1.1//EN"
  "http://www.w3.org/Graphics/SVG/1.1/DTD/svg11.dtd">
<svg xmlns:xlink="http://www.w3.org/1999/xlink" width="460.8pt" height="345.6pt" viewBox="0 0 460.8 345.6" xmlns="http://www.w3.org/2000/svg" version="1.1">
 <metadata>
  <rdf:RDF xmlns:dc="http://purl.org/dc/elements/1.1/" xmlns:cc="http://creativecommons.org/ns#" xmlns:rdf="http://www.w3.org/1999/02/22-rdf-syntax-ns#">
   <cc:Work>
    <dc:type rdf:resource="http://purl.org/dc/dcmitype/StillImage"/>
    <dc:date>2023-02-24T14:45:19.045693</dc:date>
    <dc:format>image/svg+xml</dc:format>
    <dc:creator>
     <cc:Agent>
      <dc:title>Matplotlib v3.5.2, https://matplotlib.org/</dc:title>
     </cc:Agent>
    </dc:creator>
   </cc:Work>
  </rdf:RDF>
 </metadata>
 <defs>
  <style type="text/css">*{stroke-linejoin: round; stroke-linecap: butt}</style>
 </defs>
 <g id="figure_1">
  <g id="patch_1">
   <path d="M 0 345.6 
L 460.8 345.6 
L 460.8 0 
L 0 0 
z
" style="fill: #ffffff"/>
  </g>
  <g id="axes_1">
   <g id="patch_2">
    <path d="M 57.6 307.584 
L 414.72 307.584 
L 414.72 41.472 
L 57.6 41.472 
z
" style="fill: #ffffff"/>
   </g>
   <g id="matplotlib.axis_1">
    <g id="xtick_1">
     <g id="line2d_1">
      <path d="M 73.832727 307.584 
L 73.832727 41.472 
" clip-path="url(#pb3f8619ba3)" style="fill: none; stroke-dasharray: 2.96,1.28; stroke-dashoffset: 0; stroke: #cccccc; stroke-width: 0.8"/>
     </g>
     <g id="line2d_2">
      <defs>
       <path id="m8d07817117" d="M 0 0 
L 0 3.5 
" style="stroke: #000000; stroke-width: 0.8"/>
      </defs>
      <g>
       <use xlink:href="#m8d07817117" x="73.832727" y="307.584" style="stroke: #000000; stroke-width: 0.8"/>
      </g>
     </g>
     <g id="text_1">
      <!-- 0 -->
      <g transform="translate(70.651477 322.182437)scale(0.1 -0.1)">
       <defs>
        <path id="DejaVuSans-30" d="M 2034 4250 
Q 1547 4250 1301 3770 
Q 1056 3291 1056 2328 
Q 1056 1369 1301 889 
Q 1547 409 2034 409 
Q 2525 409 2770 889 
Q 3016 1369 3016 2328 
Q 3016 3291 2770 3770 
Q 2525 4250 2034 4250 
z
M 2034 4750 
Q 2819 4750 3233 4129 
Q 3647 3509 3647 2328 
Q 3647 1150 3233 529 
Q 2819 -91 2034 -91 
Q 1250 -91 836 529 
Q 422 1150 422 2328 
Q 422 3509 836 4129 
Q 1250 4750 2034 4750 
z
" transform="scale(0.015625)"/>
       </defs>
       <use xlink:href="#DejaVuSans-30"/>
      </g>
     </g>
    </g>
    <g id="xtick_2">
     <g id="line2d_3">
      <path d="M 106.298182 307.584 
L 106.298182 41.472 
" clip-path="url(#pb3f8619ba3)" style="fill: none; stroke-dasharray: 2.96,1.28; stroke-dashoffset: 0; stroke: #cccccc; stroke-width: 0.8"/>
     </g>
     <g id="line2d_4">
      <g>
       <use xlink:href="#m8d07817117" x="106.298182" y="307.584" style="stroke: #000000; stroke-width: 0.8"/>
      </g>
     </g>
     <g id="text_2">
      <!-- 500 -->
      <g transform="translate(96.754432 322.182437)scale(0.1 -0.1)">
       <defs>
        <path id="DejaVuSans-35" d="M 691 4666 
L 3169 4666 
L 3169 4134 
L 1269 4134 
L 1269 2991 
Q 1406 3038 1543 3061 
Q 1681 3084 1819 3084 
Q 2600 3084 3056 2656 
Q 3513 2228 3513 1497 
Q 3513 744 3044 326 
Q 2575 -91 1722 -91 
Q 1428 -91 1123 -41 
Q 819 9 494 109 
L 494 744 
Q 775 591 1075 516 
Q 1375 441 1709 441 
Q 2250 441 2565 725 
Q 2881 1009 2881 1497 
Q 2881 1984 2565 2268 
Q 2250 2553 1709 2553 
Q 1456 2553 1204 2497 
Q 953 2441 691 2322 
L 691 4666 
z
" transform="scale(0.015625)"/>
       </defs>
       <use xlink:href="#DejaVuSans-35"/>
       <use xlink:href="#DejaVuSans-30" x="63.623047"/>
       <use xlink:href="#DejaVuSans-30" x="127.246094"/>
      </g>
     </g>
    </g>
    <g id="xtick_3">
     <g id="line2d_5">
      <path d="M 138.763636 307.584 
L 138.763636 41.472 
" clip-path="url(#pb3f8619ba3)" style="fill: none; stroke-dasharray: 2.96,1.28; stroke-dashoffset: 0; stroke: #cccccc; stroke-width: 0.8"/>
     </g>
     <g id="line2d_6">
      <g>
       <use xlink:href="#m8d07817117" x="138.763636" y="307.584" style="stroke: #000000; stroke-width: 0.8"/>
      </g>
     </g>
     <g id="text_3">
      <!-- 1000 -->
      <g transform="translate(126.038636 322.182437)scale(0.1 -0.1)">
       <defs>
        <path id="DejaVuSans-31" d="M 794 531 
L 1825 531 
L 1825 4091 
L 703 3866 
L 703 4441 
L 1819 4666 
L 2450 4666 
L 2450 531 
L 3481 531 
L 3481 0 
L 794 0 
L 794 531 
z
" transform="scale(0.015625)"/>
       </defs>
       <use xlink:href="#DejaVuSans-31"/>
       <use xlink:href="#DejaVuSans-30" x="63.623047"/>
       <use xlink:href="#DejaVuSans-30" x="127.246094"/>
       <use xlink:href="#DejaVuSans-30" x="190.869141"/>
      </g>
     </g>
    </g>
    <g id="xtick_4">
     <g id="line2d_7">
      <path d="M 171.229091 307.584 
L 171.229091 41.472 
" clip-path="url(#pb3f8619ba3)" style="fill: none; stroke-dasharray: 2.96,1.28; stroke-dashoffset: 0; stroke: #cccccc; stroke-width: 0.8"/>
     </g>
     <g id="line2d_8">
      <g>
       <use xlink:href="#m8d07817117" x="171.229091" y="307.584" style="stroke: #000000; stroke-width: 0.8"/>
      </g>
     </g>
     <g id="text_4">
      <!-- 1500 -->
      <g transform="translate(158.504091 322.182437)scale(0.1 -0.1)">
       <use xlink:href="#DejaVuSans-31"/>
       <use xlink:href="#DejaVuSans-35" x="63.623047"/>
       <use xlink:href="#DejaVuSans-30" x="127.246094"/>
       <use xlink:href="#DejaVuSans-30" x="190.869141"/>
      </g>
     </g>
    </g>
    <g id="xtick_5">
     <g id="line2d_9">
      <path d="M 203.694545 307.584 
L 203.694545 41.472 
" clip-path="url(#pb3f8619ba3)" style="fill: none; stroke-dasharray: 2.96,1.28; stroke-dashoffset: 0; stroke: #cccccc; stroke-width: 0.8"/>
     </g>
     <g id="line2d_10">
      <g>
       <use xlink:href="#m8d07817117" x="203.694545" y="307.584" style="stroke: #000000; stroke-width: 0.8"/>
      </g>
     </g>
     <g id="text_5">
      <!-- 2000 -->
      <g transform="translate(190.969545 322.182437)scale(0.1 -0.1)">
       <defs>
        <path id="DejaVuSans-32" d="M 1228 531 
L 3431 531 
L 3431 0 
L 469 0 
L 469 531 
Q 828 903 1448 1529 
Q 2069 2156 2228 2338 
Q 2531 2678 2651 2914 
Q 2772 3150 2772 3378 
Q 2772 3750 2511 3984 
Q 2250 4219 1831 4219 
Q 1534 4219 1204 4116 
Q 875 4013 500 3803 
L 500 4441 
Q 881 4594 1212 4672 
Q 1544 4750 1819 4750 
Q 2544 4750 2975 4387 
Q 3406 4025 3406 3419 
Q 3406 3131 3298 2873 
Q 3191 2616 2906 2266 
Q 2828 2175 2409 1742 
Q 1991 1309 1228 531 
z
" transform="scale(0.015625)"/>
       </defs>
       <use xlink:href="#DejaVuSans-32"/>
       <use xlink:href="#DejaVuSans-30" x="63.623047"/>
       <use xlink:href="#DejaVuSans-30" x="127.246094"/>
       <use xlink:href="#DejaVuSans-30" x="190.869141"/>
      </g>
     </g>
    </g>
    <g id="xtick_6">
     <g id="line2d_11">
      <path d="M 236.16 307.584 
L 236.16 41.472 
" clip-path="url(#pb3f8619ba3)" style="fill: none; stroke-dasharray: 2.96,1.28; stroke-dashoffset: 0; stroke: #cccccc; stroke-width: 0.8"/>
     </g>
     <g id="line2d_12">
      <g>
       <use xlink:href="#m8d07817117" x="236.16" y="307.584" style="stroke: #000000; stroke-width: 0.8"/>
      </g>
     </g>
     <g id="text_6">
      <!-- 2500 -->
      <g transform="translate(223.435 322.182437)scale(0.1 -0.1)">
       <use xlink:href="#DejaVuSans-32"/>
       <use xlink:href="#DejaVuSans-35" x="63.623047"/>
       <use xlink:href="#DejaVuSans-30" x="127.246094"/>
       <use xlink:href="#DejaVuSans-30" x="190.869141"/>
      </g>
     </g>
    </g>
    <g id="xtick_7">
     <g id="line2d_13">
      <path d="M 268.625455 307.584 
L 268.625455 41.472 
" clip-path="url(#pb3f8619ba3)" style="fill: none; stroke-dasharray: 2.96,1.28; stroke-dashoffset: 0; stroke: #cccccc; stroke-width: 0.8"/>
     </g>
     <g id="line2d_14">
      <g>
       <use xlink:href="#m8d07817117" x="268.625455" y="307.584" style="stroke: #000000; stroke-width: 0.8"/>
      </g>
     </g>
     <g id="text_7">
      <!-- 3000 -->
      <g transform="translate(255.900455 322.182437)scale(0.1 -0.1)">
       <defs>
        <path id="DejaVuSans-33" d="M 2597 2516 
Q 3050 2419 3304 2112 
Q 3559 1806 3559 1356 
Q 3559 666 3084 287 
Q 2609 -91 1734 -91 
Q 1441 -91 1130 -33 
Q 819 25 488 141 
L 488 750 
Q 750 597 1062 519 
Q 1375 441 1716 441 
Q 2309 441 2620 675 
Q 2931 909 2931 1356 
Q 2931 1769 2642 2001 
Q 2353 2234 1838 2234 
L 1294 2234 
L 1294 2753 
L 1863 2753 
Q 2328 2753 2575 2939 
Q 2822 3125 2822 3475 
Q 2822 3834 2567 4026 
Q 2313 4219 1838 4219 
Q 1578 4219 1281 4162 
Q 984 4106 628 3988 
L 628 4550 
Q 988 4650 1302 4700 
Q 1616 4750 1894 4750 
Q 2613 4750 3031 4423 
Q 3450 4097 3450 3541 
Q 3450 3153 3228 2886 
Q 3006 2619 2597 2516 
z
" transform="scale(0.015625)"/>
       </defs>
       <use xlink:href="#DejaVuSans-33"/>
       <use xlink:href="#DejaVuSans-30" x="63.623047"/>
       <use xlink:href="#DejaVuSans-30" x="127.246094"/>
       <use xlink:href="#DejaVuSans-30" x="190.869141"/>
      </g>
     </g>
    </g>
    <g id="xtick_8">
     <g id="line2d_15">
      <path d="M 301.090909 307.584 
L 301.090909 41.472 
" clip-path="url(#pb3f8619ba3)" style="fill: none; stroke-dasharray: 2.96,1.28; stroke-dashoffset: 0; stroke: #cccccc; stroke-width: 0.8"/>
     </g>
     <g id="line2d_16">
      <g>
       <use xlink:href="#m8d07817117" x="301.090909" y="307.584" style="stroke: #000000; stroke-width: 0.8"/>
      </g>
     </g>
     <g id="text_8">
      <!-- 3500 -->
      <g transform="translate(288.365909 322.182437)scale(0.1 -0.1)">
       <use xlink:href="#DejaVuSans-33"/>
       <use xlink:href="#DejaVuSans-35" x="63.623047"/>
       <use xlink:href="#DejaVuSans-30" x="127.246094"/>
       <use xlink:href="#DejaVuSans-30" x="190.869141"/>
      </g>
     </g>
    </g>
    <g id="xtick_9">
     <g id="line2d_17">
      <path d="M 333.556364 307.584 
L 333.556364 41.472 
" clip-path="url(#pb3f8619ba3)" style="fill: none; stroke-dasharray: 2.96,1.28; stroke-dashoffset: 0; stroke: #cccccc; stroke-width: 0.8"/>
     </g>
     <g id="line2d_18">
      <g>
       <use xlink:href="#m8d07817117" x="333.556364" y="307.584" style="stroke: #000000; stroke-width: 0.8"/>
      </g>
     </g>
     <g id="text_9">
      <!-- 4000 -->
      <g transform="translate(320.831364 322.182437)scale(0.1 -0.1)">
       <defs>
        <path id="DejaVuSans-34" d="M 2419 4116 
L 825 1625 
L 2419 1625 
L 2419 4116 
z
M 2253 4666 
L 3047 4666 
L 3047 1625 
L 3713 1625 
L 3713 1100 
L 3047 1100 
L 3047 0 
L 2419 0 
L 2419 1100 
L 313 1100 
L 313 1709 
L 2253 4666 
z
" transform="scale(0.015625)"/>
       </defs>
       <use xlink:href="#DejaVuSans-34"/>
       <use xlink:href="#DejaVuSans-30" x="63.623047"/>
       <use xlink:href="#DejaVuSans-30" x="127.246094"/>
       <use xlink:href="#DejaVuSans-30" x="190.869141"/>
      </g>
     </g>
    </g>
    <g id="xtick_10">
     <g id="line2d_19">
      <path d="M 366.021818 307.584 
L 366.021818 41.472 
" clip-path="url(#pb3f8619ba3)" style="fill: none; stroke-dasharray: 2.96,1.28; stroke-dashoffset: 0; stroke: #cccccc; stroke-width: 0.8"/>
     </g>
     <g id="line2d_20">
      <g>
       <use xlink:href="#m8d07817117" x="366.021818" y="307.584" style="stroke: #000000; stroke-width: 0.8"/>
      </g>
     </g>
     <g id="text_10">
      <!-- 4500 -->
      <g transform="translate(353.296818 322.182437)scale(0.1 -0.1)">
       <use xlink:href="#DejaVuSans-34"/>
       <use xlink:href="#DejaVuSans-35" x="63.623047"/>
       <use xlink:href="#DejaVuSans-30" x="127.246094"/>
       <use xlink:href="#DejaVuSans-30" x="190.869141"/>
      </g>
     </g>
    </g>
    <g id="xtick_11">
     <g id="line2d_21">
      <path d="M 398.487273 307.584 
L 398.487273 41.472 
" clip-path="url(#pb3f8619ba3)" style="fill: none; stroke-dasharray: 2.96,1.28; stroke-dashoffset: 0; stroke: #cccccc; stroke-width: 0.8"/>
     </g>
     <g id="line2d_22">
      <g>
       <use xlink:href="#m8d07817117" x="398.487273" y="307.584" style="stroke: #000000; stroke-width: 0.8"/>
      </g>
     </g>
     <g id="text_11">
      <!-- 5000 -->
      <g transform="translate(385.762273 322.182437)scale(0.1 -0.1)">
       <use xlink:href="#DejaVuSans-35"/>
       <use xlink:href="#DejaVuSans-30" x="63.623047"/>
       <use xlink:href="#DejaVuSans-30" x="127.246094"/>
       <use xlink:href="#DejaVuSans-30" x="190.869141"/>
      </g>
     </g>
    </g>
    <g id="text_12">
     <!-- Tiempo (ms) -->
     <g transform="translate(198.440625 337.38025)scale(0.12 -0.12)">
      <defs>
       <path id="DejaVuSans-54" d="M -19 4666 
L 3928 4666 
L 3928 4134 
L 2272 4134 
L 2272 0 
L 1638 0 
L 1638 4134 
L -19 4134 
L -19 4666 
z
" transform="scale(0.015625)"/>
       <path id="DejaVuSans-69" d="M 603 3500 
L 1178 3500 
L 1178 0 
L 603 0 
L 603 3500 
z
M 603 4863 
L 1178 4863 
L 1178 4134 
L 603 4134 
L 603 4863 
z
" transform="scale(0.015625)"/>
       <path id="DejaVuSans-65" d="M 3597 1894 
L 3597 1613 
L 953 1613 
Q 991 1019 1311 708 
Q 1631 397 2203 397 
Q 2534 397 2845 478 
Q 3156 559 3463 722 
L 3463 178 
Q 3153 47 2828 -22 
Q 2503 -91 2169 -91 
Q 1331 -91 842 396 
Q 353 884 353 1716 
Q 353 2575 817 3079 
Q 1281 3584 2069 3584 
Q 2775 3584 3186 3129 
Q 3597 2675 3597 1894 
z
M 3022 2063 
Q 3016 2534 2758 2815 
Q 2500 3097 2075 3097 
Q 1594 3097 1305 2825 
Q 1016 2553 972 2059 
L 3022 2063 
z
" transform="scale(0.015625)"/>
       <path id="DejaVuSans-6d" d="M 3328 2828 
Q 3544 3216 3844 3400 
Q 4144 3584 4550 3584 
Q 5097 3584 5394 3201 
Q 5691 2819 5691 2113 
L 5691 0 
L 5113 0 
L 5113 2094 
Q 5113 2597 4934 2840 
Q 4756 3084 4391 3084 
Q 3944 3084 3684 2787 
Q 3425 2491 3425 1978 
L 3425 0 
L 2847 0 
L 2847 2094 
Q 2847 2600 2669 2842 
Q 2491 3084 2119 3084 
Q 1678 3084 1418 2786 
Q 1159 2488 1159 1978 
L 1159 0 
L 581 0 
L 581 3500 
L 1159 3500 
L 1159 2956 
Q 1356 3278 1631 3431 
Q 1906 3584 2284 3584 
Q 2666 3584 2933 3390 
Q 3200 3197 3328 2828 
z
" transform="scale(0.015625)"/>
       <path id="DejaVuSans-70" d="M 1159 525 
L 1159 -1331 
L 581 -1331 
L 581 3500 
L 1159 3500 
L 1159 2969 
Q 1341 3281 1617 3432 
Q 1894 3584 2278 3584 
Q 2916 3584 3314 3078 
Q 3713 2572 3713 1747 
Q 3713 922 3314 415 
Q 2916 -91 2278 -91 
Q 1894 -91 1617 61 
Q 1341 213 1159 525 
z
M 3116 1747 
Q 3116 2381 2855 2742 
Q 2594 3103 2138 3103 
Q 1681 3103 1420 2742 
Q 1159 2381 1159 1747 
Q 1159 1113 1420 752 
Q 1681 391 2138 391 
Q 2594 391 2855 752 
Q 3116 1113 3116 1747 
z
" transform="scale(0.015625)"/>
       <path id="DejaVuSans-6f" d="M 1959 3097 
Q 1497 3097 1228 2736 
Q 959 2375 959 1747 
Q 959 1119 1226 758 
Q 1494 397 1959 397 
Q 2419 397 2687 759 
Q 2956 1122 2956 1747 
Q 2956 2369 2687 2733 
Q 2419 3097 1959 3097 
z
M 1959 3584 
Q 2709 3584 3137 3096 
Q 3566 2609 3566 1747 
Q 3566 888 3137 398 
Q 2709 -91 1959 -91 
Q 1206 -91 779 398 
Q 353 888 353 1747 
Q 353 2609 779 3096 
Q 1206 3584 1959 3584 
z
" transform="scale(0.015625)"/>
       <path id="DejaVuSans-20" transform="scale(0.015625)"/>
       <path id="DejaVuSans-28" d="M 1984 4856 
Q 1566 4138 1362 3434 
Q 1159 2731 1159 2009 
Q 1159 1288 1364 580 
Q 1569 -128 1984 -844 
L 1484 -844 
Q 1016 -109 783 600 
Q 550 1309 550 2009 
Q 550 2706 781 3412 
Q 1013 4119 1484 4856 
L 1984 4856 
z
" transform="scale(0.015625)"/>
       <path id="DejaVuSans-73" d="M 2834 3397 
L 2834 2853 
Q 2591 2978 2328 3040 
Q 2066 3103 1784 3103 
Q 1356 3103 1142 2972 
Q 928 2841 928 2578 
Q 928 2378 1081 2264 
Q 1234 2150 1697 2047 
L 1894 2003 
Q 2506 1872 2764 1633 
Q 3022 1394 3022 966 
Q 3022 478 2636 193 
Q 2250 -91 1575 -91 
Q 1294 -91 989 -36 
Q 684 19 347 128 
L 347 722 
Q 666 556 975 473 
Q 1284 391 1588 391 
Q 1994 391 2212 530 
Q 2431 669 2431 922 
Q 2431 1156 2273 1281 
Q 2116 1406 1581 1522 
L 1381 1569 
Q 847 1681 609 1914 
Q 372 2147 372 2553 
Q 372 3047 722 3315 
Q 1072 3584 1716 3584 
Q 2034 3584 2315 3537 
Q 2597 3491 2834 3397 
z
" transform="scale(0.015625)"/>
       <path id="DejaVuSans-29" d="M 513 4856 
L 1013 4856 
Q 1481 4119 1714 3412 
Q 1947 2706 1947 2009 
Q 1947 1309 1714 600 
Q 1481 -109 1013 -844 
L 513 -844 
Q 928 -128 1133 580 
Q 1338 1288 1338 2009 
Q 1338 2731 1133 3434 
Q 928 4138 513 4856 
z
" transform="scale(0.015625)"/>
      </defs>
      <use xlink:href="#DejaVuSans-54"/>
      <use xlink:href="#DejaVuSans-69" x="57.958984"/>
      <use xlink:href="#DejaVuSans-65" x="85.742188"/>
      <use xlink:href="#DejaVuSans-6d" x="147.265625"/>
      <use xlink:href="#DejaVuSans-70" x="244.677734"/>
      <use xlink:href="#DejaVuSans-6f" x="308.154297"/>
      <use xlink:href="#DejaVuSans-20" x="369.335938"/>
      <use xlink:href="#DejaVuSans-28" x="401.123047"/>
      <use xlink:href="#DejaVuSans-6d" x="440.136719"/>
      <use xlink:href="#DejaVuSans-73" x="537.548828"/>
      <use xlink:href="#DejaVuSans-29" x="589.648438"/>
     </g>
    </g>
   </g>
   <g id="matplotlib.axis_2">
    <g id="ytick_1">
     <g id="line2d_23">
      <path d="M 57.6 295.488 
L 414.72 295.488 
" clip-path="url(#pb3f8619ba3)" style="fill: none; stroke-dasharray: 2.96,1.28; stroke-dashoffset: 0; stroke: #cccccc; stroke-width: 0.8"/>
     </g>
     <g id="line2d_24">
      <defs>
       <path id="m2f2d2ffdae" d="M 0 0 
L -3.5 0 
" style="stroke: #000000; stroke-width: 0.8"/>
      </defs>
      <g>
       <use xlink:href="#m2f2d2ffdae" x="57.6" y="295.488" style="stroke: #000000; stroke-width: 0.8"/>
      </g>
     </g>
     <g id="text_13">
      <!-- 0.0 -->
      <g transform="translate(34.696875 299.287219)scale(0.1 -0.1)">
       <defs>
        <path id="DejaVuSans-2e" d="M 684 794 
L 1344 794 
L 1344 0 
L 684 0 
L 684 794 
z
" transform="scale(0.015625)"/>
       </defs>
       <use xlink:href="#DejaVuSans-30"/>
       <use xlink:href="#DejaVuSans-2e" x="63.623047"/>
       <use xlink:href="#DejaVuSans-30" x="95.410156"/>
      </g>
     </g>
    </g>
    <g id="ytick_2">
     <g id="line2d_25">
      <path d="M 57.6 262.047654 
L 414.72 262.047654 
" clip-path="url(#pb3f8619ba3)" style="fill: none; stroke-dasharray: 2.96,1.28; stroke-dashoffset: 0; stroke: #cccccc; stroke-width: 0.8"/>
     </g>
     <g id="line2d_26">
      <g>
       <use xlink:href="#m2f2d2ffdae" x="57.6" y="262.047654" style="stroke: #000000; stroke-width: 0.8"/>
      </g>
     </g>
     <g id="text_14">
      <!-- 2.5 -->
      <g transform="translate(34.696875 265.846873)scale(0.1 -0.1)">
       <use xlink:href="#DejaVuSans-32"/>
       <use xlink:href="#DejaVuSans-2e" x="63.623047"/>
       <use xlink:href="#DejaVuSans-35" x="95.410156"/>
      </g>
     </g>
    </g>
    <g id="ytick_3">
     <g id="line2d_27">
      <path d="M 57.6 228.607309 
L 414.72 228.607309 
" clip-path="url(#pb3f8619ba3)" style="fill: none; stroke-dasharray: 2.96,1.28; stroke-dashoffset: 0; stroke: #cccccc; stroke-width: 0.8"/>
     </g>
     <g id="line2d_28">
      <g>
       <use xlink:href="#m2f2d2ffdae" x="57.6" y="228.607309" style="stroke: #000000; stroke-width: 0.8"/>
      </g>
     </g>
     <g id="text_15">
      <!-- 5.0 -->
      <g transform="translate(34.696875 232.406528)scale(0.1 -0.1)">
       <use xlink:href="#DejaVuSans-35"/>
       <use xlink:href="#DejaVuSans-2e" x="63.623047"/>
       <use xlink:href="#DejaVuSans-30" x="95.410156"/>
      </g>
     </g>
    </g>
    <g id="ytick_4">
     <g id="line2d_29">
      <path d="M 57.6 195.166963 
L 414.72 195.166963 
" clip-path="url(#pb3f8619ba3)" style="fill: none; stroke-dasharray: 2.96,1.28; stroke-dashoffset: 0; stroke: #cccccc; stroke-width: 0.8"/>
     </g>
     <g id="line2d_30">
      <g>
       <use xlink:href="#m2f2d2ffdae" x="57.6" y="195.166963" style="stroke: #000000; stroke-width: 0.8"/>
      </g>
     </g>
     <g id="text_16">
      <!-- 7.5 -->
      <g transform="translate(34.696875 198.966182)scale(0.1 -0.1)">
       <defs>
        <path id="DejaVuSans-37" d="M 525 4666 
L 3525 4666 
L 3525 4397 
L 1831 0 
L 1172 0 
L 2766 4134 
L 525 4134 
L 525 4666 
z
" transform="scale(0.015625)"/>
       </defs>
       <use xlink:href="#DejaVuSans-37"/>
       <use xlink:href="#DejaVuSans-2e" x="63.623047"/>
       <use xlink:href="#DejaVuSans-35" x="95.410156"/>
      </g>
     </g>
    </g>
    <g id="ytick_5">
     <g id="line2d_31">
      <path d="M 57.6 161.726618 
L 414.72 161.726618 
" clip-path="url(#pb3f8619ba3)" style="fill: none; stroke-dasharray: 2.96,1.28; stroke-dashoffset: 0; stroke: #cccccc; stroke-width: 0.8"/>
     </g>
     <g id="line2d_32">
      <g>
       <use xlink:href="#m2f2d2ffdae" x="57.6" y="161.726618" style="stroke: #000000; stroke-width: 0.8"/>
      </g>
     </g>
     <g id="text_17">
      <!-- 10.0 -->
      <g transform="translate(28.334375 165.525836)scale(0.1 -0.1)">
       <use xlink:href="#DejaVuSans-31"/>
       <use xlink:href="#DejaVuSans-30" x="63.623047"/>
       <use xlink:href="#DejaVuSans-2e" x="127.246094"/>
       <use xlink:href="#DejaVuSans-30" x="159.033203"/>
      </g>
     </g>
    </g>
    <g id="ytick_6">
     <g id="line2d_33">
      <path d="M 57.6 128.286272 
L 414.72 128.286272 
" clip-path="url(#pb3f8619ba3)" style="fill: none; stroke-dasharray: 2.96,1.28; stroke-dashoffset: 0; stroke: #cccccc; stroke-width: 0.8"/>
     </g>
     <g id="line2d_34">
      <g>
       <use xlink:href="#m2f2d2ffdae" x="57.6" y="128.286272" style="stroke: #000000; stroke-width: 0.8"/>
      </g>
     </g>
     <g id="text_18">
      <!-- 12.5 -->
      <g transform="translate(28.334375 132.085491)scale(0.1 -0.1)">
       <use xlink:href="#DejaVuSans-31"/>
       <use xlink:href="#DejaVuSans-32" x="63.623047"/>
       <use xlink:href="#DejaVuSans-2e" x="127.246094"/>
       <use xlink:href="#DejaVuSans-35" x="159.033203"/>
      </g>
     </g>
    </g>
    <g id="ytick_7">
     <g id="line2d_35">
      <path d="M 57.6 94.845927 
L 414.72 94.845927 
" clip-path="url(#pb3f8619ba3)" style="fill: none; stroke-dasharray: 2.96,1.28; stroke-dashoffset: 0; stroke: #cccccc; stroke-width: 0.8"/>
     </g>
     <g id="line2d_36">
      <g>
       <use xlink:href="#m2f2d2ffdae" x="57.6" y="94.845927" style="stroke: #000000; stroke-width: 0.8"/>
      </g>
     </g>
     <g id="text_19">
      <!-- 15.0 -->
      <g transform="translate(28.334375 98.645145)scale(0.1 -0.1)">
       <use xlink:href="#DejaVuSans-31"/>
       <use xlink:href="#DejaVuSans-35" x="63.623047"/>
       <use xlink:href="#DejaVuSans-2e" x="127.246094"/>
       <use xlink:href="#DejaVuSans-30" x="159.033203"/>
      </g>
     </g>
    </g>
    <g id="ytick_8">
     <g id="line2d_37">
      <path d="M 57.6 61.405581 
L 414.72 61.405581 
" clip-path="url(#pb3f8619ba3)" style="fill: none; stroke-dasharray: 2.96,1.28; stroke-dashoffset: 0; stroke: #cccccc; stroke-width: 0.8"/>
     </g>
     <g id="line2d_38">
      <g>
       <use xlink:href="#m2f2d2ffdae" x="57.6" y="61.405581" style="stroke: #000000; stroke-width: 0.8"/>
      </g>
     </g>
     <g id="text_20">
      <!-- 17.5 -->
      <g transform="translate(28.334375 65.2048)scale(0.1 -0.1)">
       <use xlink:href="#DejaVuSans-31"/>
       <use xlink:href="#DejaVuSans-37" x="63.623047"/>
       <use xlink:href="#DejaVuSans-2e" x="127.246094"/>
       <use xlink:href="#DejaVuSans-35" x="159.033203"/>
      </g>
     </g>
    </g>
    <g id="text_21">
     <!-- Throughput (Mbps) -->
     <g transform="translate(21.83875 231.885187)rotate(-90)scale(0.12 -0.12)">
      <defs>
       <path id="DejaVuSans-68" d="M 3513 2113 
L 3513 0 
L 2938 0 
L 2938 2094 
Q 2938 2591 2744 2837 
Q 2550 3084 2163 3084 
Q 1697 3084 1428 2787 
Q 1159 2491 1159 1978 
L 1159 0 
L 581 0 
L 581 4863 
L 1159 4863 
L 1159 2956 
Q 1366 3272 1645 3428 
Q 1925 3584 2291 3584 
Q 2894 3584 3203 3211 
Q 3513 2838 3513 2113 
z
" transform="scale(0.015625)"/>
       <path id="DejaVuSans-72" d="M 2631 2963 
Q 2534 3019 2420 3045 
Q 2306 3072 2169 3072 
Q 1681 3072 1420 2755 
Q 1159 2438 1159 1844 
L 1159 0 
L 581 0 
L 581 3500 
L 1159 3500 
L 1159 2956 
Q 1341 3275 1631 3429 
Q 1922 3584 2338 3584 
Q 2397 3584 2469 3576 
Q 2541 3569 2628 3553 
L 2631 2963 
z
" transform="scale(0.015625)"/>
       <path id="DejaVuSans-75" d="M 544 1381 
L 544 3500 
L 1119 3500 
L 1119 1403 
Q 1119 906 1312 657 
Q 1506 409 1894 409 
Q 2359 409 2629 706 
Q 2900 1003 2900 1516 
L 2900 3500 
L 3475 3500 
L 3475 0 
L 2900 0 
L 2900 538 
Q 2691 219 2414 64 
Q 2138 -91 1772 -91 
Q 1169 -91 856 284 
Q 544 659 544 1381 
z
M 1991 3584 
L 1991 3584 
z
" transform="scale(0.015625)"/>
       <path id="DejaVuSans-67" d="M 2906 1791 
Q 2906 2416 2648 2759 
Q 2391 3103 1925 3103 
Q 1463 3103 1205 2759 
Q 947 2416 947 1791 
Q 947 1169 1205 825 
Q 1463 481 1925 481 
Q 2391 481 2648 825 
Q 2906 1169 2906 1791 
z
M 3481 434 
Q 3481 -459 3084 -895 
Q 2688 -1331 1869 -1331 
Q 1566 -1331 1297 -1286 
Q 1028 -1241 775 -1147 
L 775 -588 
Q 1028 -725 1275 -790 
Q 1522 -856 1778 -856 
Q 2344 -856 2625 -561 
Q 2906 -266 2906 331 
L 2906 616 
Q 2728 306 2450 153 
Q 2172 0 1784 0 
Q 1141 0 747 490 
Q 353 981 353 1791 
Q 353 2603 747 3093 
Q 1141 3584 1784 3584 
Q 2172 3584 2450 3431 
Q 2728 3278 2906 2969 
L 2906 3500 
L 3481 3500 
L 3481 434 
z
" transform="scale(0.015625)"/>
       <path id="DejaVuSans-74" d="M 1172 4494 
L 1172 3500 
L 2356 3500 
L 2356 3053 
L 1172 3053 
L 1172 1153 
Q 1172 725 1289 603 
Q 1406 481 1766 481 
L 2356 481 
L 2356 0 
L 1766 0 
Q 1100 0 847 248 
Q 594 497 594 1153 
L 594 3053 
L 172 3053 
L 172 3500 
L 594 3500 
L 594 4494 
L 1172 4494 
z
" transform="scale(0.015625)"/>
       <path id="DejaVuSans-4d" d="M 628 4666 
L 1569 4666 
L 2759 1491 
L 3956 4666 
L 4897 4666 
L 4897 0 
L 4281 0 
L 4281 4097 
L 3078 897 
L 2444 897 
L 1241 4097 
L 1241 0 
L 628 0 
L 628 4666 
z
" transform="scale(0.015625)"/>
       <path id="DejaVuSans-62" d="M 3116 1747 
Q 3116 2381 2855 2742 
Q 2594 3103 2138 3103 
Q 1681 3103 1420 2742 
Q 1159 2381 1159 1747 
Q 1159 1113 1420 752 
Q 1681 391 2138 391 
Q 2594 391 2855 752 
Q 3116 1113 3116 1747 
z
M 1159 2969 
Q 1341 3281 1617 3432 
Q 1894 3584 2278 3584 
Q 2916 3584 3314 3078 
Q 3713 2572 3713 1747 
Q 3713 922 3314 415 
Q 2916 -91 2278 -91 
Q 1894 -91 1617 61 
Q 1341 213 1159 525 
L 1159 0 
L 581 0 
L 581 4863 
L 1159 4863 
L 1159 2969 
z
" transform="scale(0.015625)"/>
      </defs>
      <use xlink:href="#DejaVuSans-54"/>
      <use xlink:href="#DejaVuSans-68" x="61.083984"/>
      <use xlink:href="#DejaVuSans-72" x="124.462891"/>
      <use xlink:href="#DejaVuSans-6f" x="163.326172"/>
      <use xlink:href="#DejaVuSans-75" x="224.507812"/>
      <use xlink:href="#DejaVuSans-67" x="287.886719"/>
      <use xlink:href="#DejaVuSans-68" x="351.363281"/>
      <use xlink:href="#DejaVuSans-70" x="414.742188"/>
      <use xlink:href="#DejaVuSans-75" x="478.21875"/>
      <use xlink:href="#DejaVuSans-74" x="541.597656"/>
      <use xlink:href="#DejaVuSans-20" x="580.806641"/>
      <use xlink:href="#DejaVuSans-28" x="612.59375"/>
      <use xlink:href="#DejaVuSans-4d" x="651.607422"/>
      <use xlink:href="#DejaVuSans-62" x="737.886719"/>
      <use xlink:href="#DejaVuSans-70" x="801.363281"/>
      <use xlink:href="#DejaVuSans-73" x="864.839844"/>
      <use xlink:href="#DejaVuSans-29" x="916.939453"/>
     </g>
    </g>
   </g>
   <g id="line2d_39">
    <path d="M 73.832727 295.488 
L 174.475636 295.488 
L 177.722182 295.488 
L 180.968727 295.488 
L 184.215273 295.488 
L 187.461818 188.876488 
L 190.708364 186.700743 
L 193.954909 79.98922 
L 197.201455 77.811434 
L 200.448 77.811434 
L 203.694545 114.427633 
L 206.941091 115.358346 
L 210.187636 132.952082 
L 213.434182 291.134469 
L 216.680727 295.488 
L 219.927273 295.488 
L 223.173818 295.488 
L 226.420364 188.876488 
L 229.666909 186.700743 
L 232.913455 79.98922 
L 236.16 77.811434 
L 239.406545 77.811434 
L 242.653091 93.984609 
L 245.899636 114.299048 
L 249.146182 127.798464 
L 252.392727 292.10192 
L 255.639273 295.488 
L 258.885818 295.488 
L 262.132364 295.488 
L 265.378909 188.876488 
L 268.625455 186.700743 
L 271.872 79.98922 
L 275.118545 77.811434 
L 278.365091 77.811434 
L 281.611636 110.36597 
L 284.858182 134.742071 
L 288.104727 121.05692 
L 291.351273 293.798022 
L 294.597818 295.488 
L 297.844364 295.488 
L 301.090909 295.488 
L 304.337455 188.876488 
L 307.584 186.700743 
L 310.830545 79.98922 
L 314.077091 77.811434 
L 317.323636 77.811434 
L 320.570182 90.892438 
L 323.816727 128.763875 
L 327.063273 117.474901 
L 330.309818 136.599415 
L 333.556364 125.265538 
L 336.802909 125.430862 
L 340.049455 130.327309 
L 343.296 118.764836 
L 346.542545 129.639479 
L 349.789091 117.774933 
L 353.035636 131.172298 
L 356.282182 134.678799 
L 359.528727 124.516477 
L 362.775273 114.952179 
L 366.021818 130.5457 
L 369.268364 136.315711 
L 372.514909 122.74894 
L 375.761455 131.202914 
L 379.008 133.721553 
L 382.254545 145.747341 
L 385.501091 127.963788 
L 388.747636 138.752708 
L 391.994182 135.672784 
L 395.240727 137.093346 
L 398.487273 189.801078 
" clip-path="url(#pb3f8619ba3)" style="fill: none; stroke: #1f77b4; stroke-width: 0.5; stroke-linecap: square"/>
   </g>
   <g id="line2d_40">
    <path d="M 73.832727 295.488 
L 174.475636 295.488 
L 177.722182 295.488 
L 180.968727 295.488 
L 184.215273 295.488 
L 187.461818 188.876488 
L 190.708364 186.700743 
L 193.954909 79.98922 
L 197.201455 77.811434 
L 200.448 77.811434 
L 203.694545 77.811434 
L 206.941091 119.179166 
L 210.187636 123.738842 
L 213.434182 292.106002 
L 216.680727 295.488 
L 219.927273 295.488 
L 223.173818 295.488 
L 226.420364 188.876488 
L 229.666909 186.700743 
L 232.913455 79.98922 
L 236.16 77.811434 
L 239.406545 77.811434 
L 242.653091 86.712395 
L 245.899636 124.022546 
L 249.146182 116.46867 
L 252.392727 293.79394 
L 255.639273 295.488 
L 258.885818 295.488 
L 262.132364 295.488 
L 265.378909 188.876488 
L 268.625455 186.700743 
L 271.872 79.98922 
L 275.118545 77.811434 
L 278.365091 77.811434 
L 281.611636 124.447082 
L 284.858182 111.945732 
L 288.104727 131.258022 
L 291.351273 293.795981 
L 294.597818 295.488 
L 297.844364 295.488 
L 301.090909 295.488 
L 304.337455 188.876488 
L 307.584 186.700743 
L 310.830545 79.98922 
L 314.077091 77.811434 
L 317.323636 78.074728 
L 320.570182 127.231056 
L 323.816727 121.701888 
L 327.063273 133.631747 
L 330.309818 128.135235 
L 333.556364 141.379523 
L 336.802909 109.686305 
L 340.049455 118.885257 
L 343.296 134.650225 
L 346.542545 126.251359 
L 349.789091 113.284652 
L 353.035636 127.196359 
L 356.282182 122.82854 
L 359.528727 126.230948 
L 362.775273 141.310127 
L 366.021818 143.630786 
L 369.268364 124.745073 
L 372.514909 133.954231 
L 375.761455 129.545592 
L 379.008 115.766553 
L 382.254545 126.328918 
L 385.501091 139.765063 
L 388.747636 117.817795 
L 391.994182 113.392827 
L 395.240727 104.45921 
L 398.487273 164.300365 
" clip-path="url(#pb3f8619ba3)" style="fill: none; stroke: #ff7f0e; stroke-width: 0.5; stroke-linecap: square"/>
   </g>
   <g id="line2d_41">
    <path d="M 73.832727 295.488 
L 174.475636 295.488 
L 177.722182 295.488 
L 180.968727 295.488 
L 184.215273 295.488 
L 187.461818 188.876488 
L 190.708364 186.700743 
L 193.954909 79.98922 
L 197.201455 77.811434 
L 200.448 77.811434 
L 203.694545 77.811434 
L 206.941091 138.628205 
L 210.187636 124.483821 
L 213.434182 291.134469 
L 216.680727 295.488 
L 219.927273 295.488 
L 223.173818 295.488 
L 226.420364 188.876488 
L 229.666909 186.700743 
L 232.913455 79.98922 
L 236.16 77.811434 
L 239.406545 77.811434 
L 242.653091 89.665775 
L 245.899636 121.571261 
L 249.146182 137.244382 
L 252.392727 292.110084 
L 255.639273 295.488 
L 258.885818 295.488 
L 262.132364 295.488 
L 265.378909 188.876488 
L 268.625455 186.700743 
L 271.872 79.98922 
L 275.118545 77.811434 
L 278.365091 77.811434 
L 281.611636 111.915117 
L 284.858182 141.31421 
L 288.104727 132.841866 
L 291.351273 292.091715 
L 294.597818 295.488 
L 297.844364 295.488 
L 301.090909 295.488 
L 304.337455 188.876488 
L 307.584 186.700743 
L 310.830545 79.98922 
L 314.077091 77.811434 
L 317.323636 77.811434 
L 320.570182 85.002006 
L 323.816727 137.981197 
L 327.063273 126.169717 
L 330.309818 131.247816 
L 333.556364 112.386596 
L 336.802909 123.177557 
L 340.049455 149.941672 
L 343.296 116.031888 
L 346.542545 117.785138 
L 349.789091 118.472968 
L 353.035636 123.691898 
L 356.282182 129.555797 
L 359.528727 121.808022 
L 362.775273 133.903205 
L 366.021818 130.243626 
L 369.268364 133.984847 
L 372.514909 122.806089 
L 375.761455 128.029102 
L 379.008 119.354695 
L 382.254545 120.560948 
L 385.501091 110.498637 
L 388.747636 135.52787 
L 391.994182 122.840786 
L 395.240727 127.843367 
L 398.487273 187.231413 
" clip-path="url(#pb3f8619ba3)" style="fill: none; stroke: #2ca02c; stroke-width: 0.5; stroke-linecap: square"/>
   </g>
   <g id="line2d_42">
    <path d="M 73.832727 295.488 
L 174.475636 295.488 
L 177.722182 295.488 
L 180.968727 295.488 
L 184.215273 295.488 
L 187.461818 188.876488 
L 190.708364 186.700743 
L 193.954909 79.98922 
L 197.201455 77.811434 
L 200.448 67.022514 
L 203.694545 131.229447 
L 206.941091 116.064544 
L 210.187636 126.381985 
L 213.434182 292.10192 
L 216.680727 295.488 
L 219.927273 295.488 
L 223.173818 295.488 
L 226.420364 188.876488 
L 229.666909 186.700743 
L 232.913455 79.98922 
L 236.16 77.811434 
L 239.406545 95.911348 
L 242.653091 112.639685 
L 245.899636 138.107741 
L 249.146182 127.896434 
L 252.392727 292.095797 
L 255.639273 295.488 
L 258.885818 295.488 
L 262.132364 295.488 
L 265.378909 188.876488 
L 268.625455 186.700743 
L 271.872 79.98922 
L 275.118545 77.811434 
L 278.365091 53.568 
L 281.611636 124.494026 
L 284.858182 124.402179 
L 288.104727 124.50219 
L 291.351273 292.091715 
L 294.597818 295.488 
L 297.844364 295.488 
L 301.090909 295.488 
L 304.337455 188.876488 
L 307.584 186.700743 
L 310.830545 79.98922 
L 314.077091 77.811434 
L 317.323636 57.211251 
L 320.570182 134.752276 
L 323.816727 127.871942 
L 327.063273 148.292514 
L 330.309818 119.352654 
L 333.556364 121.756996 
L 336.802909 126.98205 
L 340.049455 127.690289 
L 343.296 118.63421 
L 346.542545 123.738842 
L 349.789091 132.043821 
L 353.035636 142.20206 
L 356.282182 131.656024 
L 359.528727 116.113529 
L 362.775273 138.030181 
L 366.021818 139.232352 
L 369.268364 133.462341 
L 372.514909 135.305397 
L 375.761455 133.974641 
L 379.008 119.40368 
L 382.254545 119.50165 
L 385.501091 136.248356 
L 388.747636 105.859361 
L 391.994182 145.594263 
L 395.240727 107.39422 
L 398.487273 181.589987 
" clip-path="url(#pb3f8619ba3)" style="fill: none; stroke: #d62728; stroke-width: 0.5; stroke-linecap: square"/>
   </g>
   <g id="line2d_43">
    <path d="M 73.832727 295.488 
L 174.475636 295.488 
L 177.722182 295.488 
L 180.968727 295.488 
L 184.215273 295.488 
L 187.461818 188.876488 
L 190.708364 186.700743 
L 193.954909 79.98922 
L 197.201455 77.811434 
L 200.448 77.811434 
L 203.694545 103.701985 
L 206.941091 119.44246 
L 210.187636 131.276391 
L 213.434182 293.781693 
L 216.680727 295.488 
L 219.927273 295.488 
L 223.173818 295.488 
L 226.420364 188.876488 
L 229.666909 186.700743 
L 232.913455 79.98922 
L 236.16 77.811434 
L 239.406545 79.562644 
L 242.653091 135.593184 
L 245.899636 117.658594 
L 249.146182 114.550095 
L 252.392727 293.53881 
L 255.639273 295.488 
L 258.885818 295.488 
L 262.132364 295.488 
L 265.378909 188.876488 
L 268.625455 186.700743 
L 271.872 79.98922 
L 275.118545 77.811434 
L 278.365091 77.811434 
L 281.611636 136.129976 
L 284.858182 115.784922 
L 288.104727 122.930592 
L 291.351273 291.134469 
L 294.597818 295.488 
L 297.844364 295.488 
L 301.090909 295.488 
L 304.337455 188.876488 
L 307.584 186.700743 
L 310.830545 79.98922 
L 314.077091 77.811434 
L 317.323636 100.101596 
L 320.570182 136.43205 
L 323.816727 128.657741 
L 327.063273 118.630127 
L 330.309818 116.436013 
L 333.556364 118.96894 
L 336.802909 139.685462 
L 340.049455 134.382849 
L 343.296 114.509274 
L 346.542545 119.275095 
L 349.789091 134.727784 
L 353.035636 123.528616 
L 356.282182 125.988065 
L 359.528727 97.5503 
L 362.775273 118.73422 
L 366.021818 125.185937 
L 369.268364 128.621002 
L 372.514909 134.931888 
L 375.761455 138.771078 
L 379.008 132.149955 
L 382.254545 133.709307 
L 385.501091 120.473184 
L 388.747636 109.91286 
L 391.994182 128.800613 
L 395.240727 115.625721 
L 398.487273 190.758324 
" clip-path="url(#pb3f8619ba3)" style="fill: none; stroke: #9467bd; stroke-width: 0.5; stroke-linecap: square"/>
   </g>
   <g id="patch_3">
    <path d="M 57.6 307.584 
L 57.6 41.472 
" style="fill: none; stroke: #000000; stroke-linejoin: miter; stroke-linecap: square"/>
   </g>
   <g id="patch_4">
    <path d="M 57.6 307.584 
L 414.72 307.584 
" style="fill: none; stroke: #000000; stroke-linejoin: miter; stroke-linecap: square"/>
   </g>
   <g id="legend_1">
    <g id="patch_5">
     <path d="M 267.0725 303.584 
L 408.32 303.584 
Q 410.72 303.584 410.72 301.184 
L 410.72 249.54275 
Q 410.72 247.14275 408.32 247.14275 
L 267.0725 247.14275 
Q 264.6725 247.14275 264.6725 249.54275 
L 264.6725 301.184 
Q 264.6725 303.584 267.0725 303.584 
z
" style="fill: #4c4c4c; opacity: 0.5; stroke: #4c4c4c; stroke-linejoin: miter"/>
    </g>
    <g id="patch_6">
     <path d="M 265.0725 301.584 
L 406.32 301.584 
Q 408.72 301.584 408.72 299.184 
L 408.72 247.54275 
Q 408.72 245.14275 406.32 245.14275 
L 265.0725 245.14275 
Q 262.6725 245.14275 262.6725 247.54275 
L 262.6725 299.184 
Q 262.6725 301.584 265.0725 301.584 
z
" style="fill: #ffffff; stroke: #cccccc; stroke-linejoin: miter"/>
    </g>
    <g id="line2d_44">
     <path d="M 267.4725 254.860875 
L 279.4725 254.860875 
L 291.4725 254.860875 
" style="fill: none; stroke: #1f77b4; stroke-width: 0.5; stroke-linecap: square"/>
    </g>
    <g id="text_22">
     <!-- ue1 -->
     <g transform="translate(301.0725 259.060875)scale(0.12 -0.12)">
      <use xlink:href="#DejaVuSans-75"/>
      <use xlink:href="#DejaVuSans-65" x="63.378906"/>
      <use xlink:href="#DejaVuSans-31" x="124.902344"/>
     </g>
    </g>
    <g id="line2d_45">
     <path d="M 267.4725 272.474625 
L 279.4725 272.474625 
L 291.4725 272.474625 
" style="fill: none; stroke: #ff7f0e; stroke-width: 0.5; stroke-linecap: square"/>
    </g>
    <g id="text_23">
     <!-- ue2 -->
     <g transform="translate(301.0725 276.674625)scale(0.12 -0.12)">
      <use xlink:href="#DejaVuSans-75"/>
      <use xlink:href="#DejaVuSans-65" x="63.378906"/>
      <use xlink:href="#DejaVuSans-32" x="124.902344"/>
     </g>
    </g>
    <g id="line2d_46">
     <path d="M 267.4725 290.088375 
L 279.4725 290.088375 
L 291.4725 290.088375 
" style="fill: none; stroke: #2ca02c; stroke-width: 0.5; stroke-linecap: square"/>
    </g>
    <g id="text_24">
     <!-- ue3 -->
     <g transform="translate(301.0725 294.288375)scale(0.12 -0.12)">
      <use xlink:href="#DejaVuSans-75"/>
      <use xlink:href="#DejaVuSans-65" x="63.378906"/>
      <use xlink:href="#DejaVuSans-33" x="124.902344"/>
     </g>
    </g>
    <g id="line2d_47">
     <path d="M 347.69625 254.860875 
L 359.69625 254.860875 
L 371.69625 254.860875 
" style="fill: none; stroke: #d62728; stroke-width: 0.5; stroke-linecap: square"/>
    </g>
    <g id="text_25">
     <!-- ue4 -->
     <g transform="translate(381.29625 259.060875)scale(0.12 -0.12)">
      <use xlink:href="#DejaVuSans-75"/>
      <use xlink:href="#DejaVuSans-65" x="63.378906"/>
      <use xlink:href="#DejaVuSans-34" x="124.902344"/>
     </g>
    </g>
    <g id="line2d_48">
     <path d="M 347.69625 272.474625 
L 359.69625 272.474625 
L 371.69625 272.474625 
" style="fill: none; stroke: #9467bd; stroke-width: 0.5; stroke-linecap: square"/>
    </g>
    <g id="text_26">
     <!-- ue5 -->
     <g transform="translate(381.29625 276.674625)scale(0.12 -0.12)">
      <use xlink:href="#DejaVuSans-75"/>
      <use xlink:href="#DejaVuSans-65" x="63.378906"/>
      <use xlink:href="#DejaVuSans-35" x="124.902344"/>
     </g>
    </g>
   </g>
  </g>
 </g>
 <defs>
  <clipPath id="pb3f8619ba3">
   <rect x="57.6" y="41.472" width="357.12" height="266.112"/>
  </clipPath>
 </defs>
</svg>
